<svg id="Circuit_Primary-5" data-name="Circuit Primary-5" xmlns="http://www.w3.org/2000/svg" width="697.5" height="195" viewBox="0 0 697.5 195">
  <g id="Group_1168" data-name="Group 1168" transform="translate(0 0)">
    <path id="Path_2561" data-name="Path 2561" d="M195,135l30,30H345m180-60,30,30h60m-270,0h60m30-60H675M255,135l30-30h60l30-30M-15,165H105l30-30H345l30-30,30-30h30l30,30H585" transform="translate(15 -67.5)" fill="none" stroke="#e88868" stroke-width="5"/>
    <path id="Path_2562" data-name="Path 2562" d="M577.5,105a7.5,7.5,0,1,0,7.5-7.5,7.5,7.5,0,0,0-7.5,7.5Zm-240,60a7.5,7.5,0,1,0,7.5-7.5A7.5,7.5,0,0,0,337.5,165Zm270-30a7.5,7.5,0,1,0,7.5-7.5,7.5,7.5,0,0,0-7.5,7.5Zm-210,0a7.5,7.5,0,1,0,7.5-7.5,7.5,7.5,0,0,0-7.5,7.5Zm270-60a7.5,7.5,0,1,0,7.5-7.5,7.5,7.5,0,0,0-7.5,7.5Zm-300,0a7.5,7.5,0,1,0,7.5-7.5A7.5,7.5,0,0,0,367.5,75Z" transform="translate(15 -67.5)" fill="#e88868"/>
    <path id="Path_2563" data-name="Path 2563" d="M195,105l30-30h60M-15,135H105l30-30h90" transform="translate(15 -67.5)" fill="none" stroke="#7dcdc7" stroke-width="5"/>
    <path id="Path_2564" data-name="Path 2564" d="M217.5,105a7.5,7.5,0,1,0,7.5-7.5,7.5,7.5,0,0,0-7.5,7.5Zm60-30a7.5,7.5,0,1,0,7.5-7.5A7.5,7.5,0,0,0,277.5,75Z" transform="translate(15 -67.5)" fill="#7dcdc7"/>
    <path id="Path_2565" data-name="Path 2565" d="M105,195l30,30m90-30,30,30m60-30,30,30H465m0-30,30-30h60M15,195l30,30,30,30h60M-15,195H615" transform="translate(15 -67.5)" fill="none" stroke="#7dcdc7" stroke-width="5"/>
    <path id="Path_2566" data-name="Path 2566" d="M607.5,195a7.5,7.5,0,1,0,7.5-7.5A7.5,7.5,0,0,0,607.5,195Zm-480,30a7.5,7.5,0,1,0,7.5-7.5,7.5,7.5,0,0,0-7.5,7.5Zm120,0a7.5,7.5,0,1,0,7.5-7.5,7.5,7.5,0,0,0-7.5,7.5Zm210,0a7.5,7.5,0,1,0,7.5-7.5A7.5,7.5,0,0,0,457.5,225Zm90-60a7.5,7.5,0,1,0,7.5-7.5,7.5,7.5,0,0,0-7.5,7.5Zm-420,90a7.5,7.5,0,1,0,7.5-7.5A7.5,7.5,0,0,0,127.5,255Z" transform="translate(15 -67.5)" fill="#7dcdc7"/>
    <path id="Path_2567" data-name="Path 2567" d="M75,105l30-30M15,105,45,75H75m-90,30H105l30-30h30" transform="translate(15 -67.5)" fill="none" stroke="#e88868" stroke-width="5"/>
    <path id="Path_2568" data-name="Path 2568" d="M157.5,75a7.5,7.5,0,1,0,7.5-7.5,7.5,7.5,0,0,0-7.5,7.5Zm-60,0a7.5,7.5,0,1,0,7.5-7.5A7.5,7.5,0,0,0,97.5,75Zm-30,0A7.5,7.5,0,1,0,75,67.5,7.5,7.5,0,0,0,67.5,75Z" transform="translate(15 -67.5)" fill="#e88868"/>
  </g>
</svg>
