<svg id="Circuit_Primary-4" data-name="Circuit Primary-4" xmlns="http://www.w3.org/2000/svg" width="757.5" height="195" viewBox="0 0 757.5 195">
  <g id="Group_1167" data-name="Group 1167" transform="translate(0 0)">
    <path id="Path_2553" data-name="Path 2553" d="M345,135l-30-30H195m-60,30-30-30H-15m450,60-30-30m-90,0-30,30H255m330,0H405l-30-30H105" transform="translate(172.5 -67.5)" fill="none" stroke="#e88868" stroke-width="5"/>
    <path id="Path_2554" data-name="Path 2554" d="M292.5,135a7.5,7.5,0,1,1-7.5-7.5,7.5,7.5,0,0,1,7.5,7.5Zm90-30a7.5,7.5,0,1,1-7.5-7.5,7.5,7.5,0,0,1,7.5,7.5Zm-210,0a7.5,7.5,0,1,1-7.5-7.5,7.5,7.5,0,0,1,7.5,7.5Zm420,30a7.5,7.5,0,1,1-7.5-7.5A7.5,7.5,0,0,1,592.5,135Zm-150,30a7.5,7.5,0,1,1-7.5-7.5A7.5,7.5,0,0,1,442.5,165Z" transform="translate(-7.5 -67.5)" fill="#e88868"/>
    <path id="Path_2555" data-name="Path 2555" d="M45,75,15,105H-15M315,75l-30,30M105,75,75,105H45L15,135H-15m540-30H495m120,30H585m150,0H615l-30-30H525L495,75H-15" transform="translate(22.5 -67.5)" fill="none" stroke="#7dcdc7" stroke-width="5"/>
    <path id="Path_2556" data-name="Path 2556" d="M142.5,75a7.5,7.5,0,1,1-7.5-7.5,7.5,7.5,0,0,1,7.5,7.5Zm0,30a7.5,7.5,0,1,1-7.5-7.5,7.5,7.5,0,0,1,7.5,7.5Zm300,0a7.5,7.5,0,1,1-7.5-7.5,7.5,7.5,0,0,1,7.5,7.5Zm-300,30a7.5,7.5,0,1,1-7.5-7.5,7.5,7.5,0,0,1,7.5,7.5Zm510-30a7.5,7.5,0,1,1-7.5-7.5,7.5,7.5,0,0,1,7.5,7.5Zm90,30a7.5,7.5,0,1,1-7.5-7.5A7.5,7.5,0,0,1,742.5,135Z" transform="translate(-127.5 -67.5)" fill="#7dcdc7"/>
    <path id="Path_2557" data-name="Path 2557" d="M465,195l-30,30m210-30-30,30-30,30H555M225,195l-30-30-30-30H105L75,165H-15m600,30-30,30H465l-30,30m60-60-30-30H435m270,30H315l-30-30H255l-30,30H75" transform="translate(52.5 -67.5)" fill="none" stroke="#7dcdc7" stroke-width="5"/>
    <path id="Path_2558" data-name="Path 2558" d="M232.5,195a7.5,7.5,0,1,1-7.5-7.5A7.5,7.5,0,0,1,232.5,195Zm360,30a7.5,7.5,0,1,1-7.5-7.5,7.5,7.5,0,0,1,7.5,7.5Zm120,30a7.5,7.5,0,1,1-7.5-7.5A7.5,7.5,0,0,1,712.5,255Zm-570-90a7.5,7.5,0,1,1-7.5-7.5,7.5,7.5,0,0,1,7.5,7.5Zm450,90a7.5,7.5,0,1,1-7.5-7.5A7.5,7.5,0,0,1,592.5,255Zm0-90a7.5,7.5,0,1,1-7.5-7.5,7.5,7.5,0,0,1,7.5,7.5Z" transform="translate(-97.5 -67.5)" fill="#7dcdc7"/>
    <path id="Path_2559" data-name="Path 2559" d="M105,75,75,105m60,0H105m90,0H135L105,75H-15" transform="translate(562.5 -67.5)" fill="none" stroke="#e88868" stroke-width="5"/>
    <path id="Path_2560" data-name="Path 2560" d="M82.5,75A7.5,7.5,0,1,1,75,67.5,7.5,7.5,0,0,1,82.5,75Zm90,30a7.5,7.5,0,1,1-7.5-7.5,7.5,7.5,0,0,1,7.5,7.5Zm30,0a7.5,7.5,0,1,1-7.5-7.5,7.5,7.5,0,0,1,7.5,7.5Z" transform="translate(472.5 -67.5)" fill="#e88868"/>
  </g>
</svg>
