<svg xmlns="http://www.w3.org/2000/svg" width="532.09" height="335.016" viewBox="0 0 532.09 335.016">
  <g id="Group_1158" data-name="Group 1158" transform="translate(3003.575 -15534)">
    <path id="Path_2533" data-name="Path 2533" d="M352.8,381.36c90.16-49.281,183.12-57.68,233.52-58.238-3.922-15.68-11.2-25.762-25.762-27.441-45.922-4.48-143.36,5.6-210.56,48.16-67.2-42.559-165.2-52.641-211.12-48.16-14.559,1.121-21.84,11.762-25.762,27.441,50.961.559,143.92,8.961,233.52,58.238Z" transform="translate(-3087.531 15421.575)" fill="#fff"/>
    <path id="Path_2534" data-name="Path 2534" d="M604.8,343.28c-35.84-1.121-142.8.559-244.16,56.559a9.452,9.452,0,0,1-5.6,1.68H344.96a10.8,10.8,0,0,1-5.6-1.68c-101.36-56-208.32-57.68-244.16-56.559A11.48,11.48,0,0,0,84,355.6c.559,7.281,1.121,15.68,2.238,22.961A11.633,11.633,0,0,0,98,389.2c33.039-1.121,134.4,1.68,226.24,54.879A20.719,20.719,0,0,0,336,447.44h28a23.547,23.547,0,0,0,11.762-3.359C467.6,390.878,569.524,388.64,602,389.2a11.636,11.636,0,0,0,11.762-10.641c.559-6.719,1.121-15.68,2.238-22.961a11.481,11.481,0,0,0-11.2-12.316Z" transform="translate(-3087.531 15421.575)" fill="#fff"/>
    <path id="Path_2535" data-name="Path 2535" d="M324.8,227.92l-71.68-21.281v58.238c0,8.961,5.6,16.8,14,19.039l31.359,8.961a187.078,187.078,0,0,0,105.28,0l31.359-8.961c8.4-2.8,14.559-10.078,14.559-19.039v-58.8l-73.359,21.84c-8.4,2.238-16.8,3.922-25.2,3.922-9.52-.559-18.48-1.68-26.32-3.918Z" transform="translate(-3087.531 15421.575)" fill="#fff"/>
    <path id="Path_2536" data-name="Path 2536" d="M205.52,170.24l125.44,37.52a64.916,64.916,0,0,0,38.641,0l107.52-31.922V204.4A5.574,5.574,0,0,0,473.2,210v7.84a6.885,6.885,0,0,0,3.922,6.16l-6.719,15.68a3.061,3.061,0,0,0,2.8,4.48l6.719.559h4.48l6.719-.559c2.238,0,3.359-2.8,2.8-4.48L487.2,224a6.892,6.892,0,0,0,3.922-6.16V210a6.885,6.885,0,0,0-3.922-6.16V172.483l7.281-2.238c8.4-2.8,8.4-15.121,0-17.359l-125.44-37.52a64.916,64.916,0,0,0-38.641,0l-125.44,37.52c-8.4,2.238-8.4,14.559.563,17.355Z" transform="translate(-3087.531 15421.575)" fill="#fff"/>
  </g>
</svg>
