<svg xmlns="http://www.w3.org/2000/svg" width="43.711" height="43.711" viewBox="0 0 43.711 43.711">
  <path id="facebook" d="M29.845,7.989A21.856,21.856,0,1,0,51.7,29.844,21.88,21.88,0,0,0,29.845,7.989Zm6.177,13.8a.39.39,0,0,1-.39.39l-2.484,0c-1.639,0-1.939.638-1.939,1.9v2.608H35.47a.389.389,0,0,1,.293.133.394.394,0,0,1,.094.307l-.607,4.7a.39.39,0,0,1-.387.34H31.209V43.816a.39.39,0,0,1-.39.39H25.971a.39.39,0,0,1-.39-.39V32.157H21.914a.39.39,0,0,1-.39-.39v-4.7a.39.39,0,0,1,.39-.39H25.58V23.608c0-4.07,2.463-6.6,6.429-6.6a33.911,33.911,0,0,1,3.674.188.39.39,0,0,1,.339.387Z" transform="translate(-7.99 -7.989)" fill="#fff"/>
</svg>
