<svg xmlns="http://www.w3.org/2000/svg" width="53.127" height="53.127" viewBox="0 0 53.127 53.127">
  <g id="Group_910" data-name="Group 910" transform="translate(0 0)">
    <path id="Path_1176" data-name="Path 1176" d="M262.672,262.64H253.12v3.22h9.552Z" transform="translate(-226.825 -237.74)" fill="#e88868"/>
    <path id="Path_1177" data-name="Path 1177" d="M86.113,33.225v-8L83,22.6H72.911V8.11H85.2V20.238l3.273,2.791h9.338V17.286H93.25V2.8h12.343V17.286h-4.562v5.742h9.445l3.112-2.791V8.11h12.343V22.6H115.842l-3.112,2.791v7.888l3.005,2.791h10.2V50.558H113.588V38.43l-3.112-2.9h-9.445v5.9h4.562V55.924H93.25V41.435h4.562V35.586H88.366l-3.22,2.9V50.612H72.8V36.122H82.893Zm16.26-27.208h-5.9v.537h5.9Zm0,3.756h-5.9v.537h5.9Zm0,4.293V13.53h-5.9v.537ZM96.523,52.7h5.849v-.537h-5.9Zm0-3.756h5.849v-.537h-5.9Zm0-4.293v.537h5.849v-.537H96.523ZM93.3,29.2h0a.106.106,0,0,0-.076.031.107.107,0,0,0-.031.076c0,.107.214.107.214,0a.107.107,0,0,0-.161-.107Zm-.59-2.952H89.386v6.118h3.327a3.113,3.113,0,0,1,0-6.118ZM76.131,19.38H81.98v-.537H76.131Zm5.849-8.05H76.131v.537H81.98Zm0,3.756H76.131v.537H81.98ZM97.811,26.249H93.84a3.113,3.113,0,0,1,0,6.118h15.67V26.249Zm24.9-14.919h-5.9v.537h5.9Zm0,3.756h-5.9v.537h5.9Zm0,3.756h-5.9v.537h5.9Zm0,20.446h-5.9v.537h5.9Zm-5.849,8.05h5.849V46.8h-5.9Zm0-3.756h5.849v-.537h-5.9ZM76.077,47.446h5.849v-.537h-5.9Zm0-3.756h5.849v-.537h-5.9Zm0-3.756h5.849V39.4h-5.9Z" transform="translate(-72.804 -2.797)" fill="#e88868"/>
  </g>
</svg>
