<svg id="Group_905" data-name="Group 905" xmlns="http://www.w3.org/2000/svg" width="53.801" height="53.801" viewBox="0 0 53.801 53.801">
  <path id="Path_1061" data-name="Path 1061" d="M128.708,52.5h12.416a6.207,6.207,0,0,1,6.208,6.208V71.124a6.207,6.207,0,0,1-6.208,6.208H128.708a6.207,6.207,0,0,1-6.208-6.208V58.708a6.207,6.207,0,0,1,6.208-6.208Zm0,13.45h5.173v5.173a1.035,1.035,0,0,0,2.069,0V65.95h5.173a1.035,1.035,0,0,0,0-2.069H135.95V58.708a1.035,1.035,0,0,0-2.069,0v5.173h-5.173a1.035,1.035,0,0,0,0,2.069Z" transform="translate(-93.53 -52.5)" fill="#7dcdc7"/>
  <path id="Path_1062" data-name="Path 1062" d="M373.708,52.5h12.416a6.207,6.207,0,0,1,6.208,6.208V71.124a6.207,6.207,0,0,1-6.208,6.208H373.708a6.207,6.207,0,0,1-6.208-6.208V58.708a6.207,6.207,0,0,1,6.208-6.208Zm0,13.45h12.416a1.035,1.035,0,0,0,0-2.069H373.708a1.035,1.035,0,0,0,0,2.069Z" transform="translate(-367.5 -52.5)" fill="#7dcdc7"/>
  <path id="Path_1063" data-name="Path 1063" d="M128.708,297.5h12.416a6.207,6.207,0,0,1,6.208,6.208v12.416a6.207,6.207,0,0,1-6.208,6.208H128.708a6.207,6.207,0,0,1-6.208-6.208V303.708a6.207,6.207,0,0,1,6.208-6.208Zm.818,16.337a1.039,1.039,0,1,0,1.469,1.469l3.921-3.921,3.921,3.921h0a1.039,1.039,0,1,0,1.469-1.469l-3.921-3.921,3.921-3.921h0a1.039,1.039,0,0,0-1.469-1.469l-3.921,3.921-3.921-3.921h0a1.039,1.039,0,0,0-1.469,1.469l3.921,3.921Z" transform="translate(-93.53 -268.53)" fill="#7dcdc7"/>
  <path id="Path_1064" data-name="Path 1064" d="M373.708,297.5h12.416a6.207,6.207,0,0,1,6.208,6.208v12.416a6.207,6.207,0,0,1-6.208,6.208H373.708a6.207,6.207,0,0,1-6.208-6.208V303.708a6.207,6.207,0,0,1,6.208-6.208Zm0,13.45h12.416a1.035,1.035,0,0,0,0-2.069H373.708a1.035,1.035,0,0,0,0,2.069Zm4.139,4.139a2.069,2.069,0,1,0,.606-1.463A2.07,2.07,0,0,0,377.846,315.089Zm4.139-10.346a2.069,2.069,0,1,0-.606,1.463A2.07,2.07,0,0,0,381.985,304.742Z" transform="translate(-367.5 -268.53)" fill="#7dcdc7"/>
</svg>
