<svg id="Group_906" data-name="Group 906" xmlns="http://www.w3.org/2000/svg" width="62.906" height="56.152" viewBox="0 0 62.906 56.152">
  <path id="Path_1175" data-name="Path 1175" d="M88.634,66a4.629,4.629,0,0,1,4.437,3.311h9.8V63.552h-5.5a1.4,1.4,0,0,1-1.391-1.391V56.135a4.635,4.635,0,1,1,2.648,0v4.7H103.6a5.648,5.648,0,0,1,4.834-2.781h5.562V51.633a4.635,4.635,0,1,1,2.648,0v6.423h5.562a5.648,5.648,0,0,1,4.834,2.781h4.966v-4.7a4.635,4.635,0,1,1,2.648,0v6.026a1.4,1.4,0,0,1-1.391,1.391h-5.23v5.761h9.8a4.635,4.635,0,1,1,0,2.648h-9.8v5.761h5.5a1.4,1.4,0,0,1,1.391,1.391V85.2a4.635,4.635,0,1,1-2.648,0V80.437H127.3a5.648,5.648,0,0,1-4.834,2.781h-5.7v6.423a4.635,4.635,0,1,1-2.648,0V83.218h-5.562a5.648,5.648,0,0,1-4.834-2.781H98.765V85.2a4.635,4.635,0,1,1-2.648,0V79.113a1.4,1.4,0,0,1,1.391-1.391h5.363V71.961h-9.8A4.633,4.633,0,1,1,88.634,66ZM99.295,51.7a1.92,1.92,0,1,0-1.92,1.92A1.921,1.921,0,0,0,99.295,51.7Zm36.155,0a1.92,1.92,0,1,0-1.92,1.92A1.921,1.921,0,0,0,135.449,51.7Zm6.82,20.858a1.92,1.92,0,1,0-1.92-1.92A1.921,1.921,0,0,0,142.269,72.557ZM131.609,89.641a1.92,1.92,0,1,0,1.92-1.92A1.921,1.921,0,0,0,131.609,89.641ZM117.372,47.2a1.92,1.92,0,1,0-1.92,1.92A1.921,1.921,0,0,0,117.372,47.2Zm-3.84,46.882a1.92,1.92,0,1,0,1.92-1.92A1.921,1.921,0,0,0,113.532,94.078Zm-3.973-25.56,6.092,6.423a1.605,1.605,0,0,0,2.383,0l3.311-3.51a1.64,1.64,0,1,0-2.384-2.252l-2.119,2.251-4.9-5.165a1.639,1.639,0,1,0-2.383,2.252Zm-14.1,21.123a1.92,1.92,0,1,0,1.92-1.92A1.921,1.921,0,0,0,95.454,89.641Zm-6.82-17.084a1.92,1.92,0,1,0-1.92-1.92A1.921,1.921,0,0,0,88.634,72.557Z" transform="translate(-83.999 -42.561)" fill="#dcbad8"/>
</svg>
