<svg xmlns="http://www.w3.org/2000/svg" width="342.5" height="111" viewBox="0 0 342.5 111">
  <g id="Group_913" data-name="Group 913" transform="translate(-99.5 -4072.66)">
    <path id="Path_1386" data-name="Path 1386" d="M22,506v88" transform="translate(89 3578.16)" fill="#57475b" stroke="#57475b" stroke-width="7.33"/>
    <path id="Path_1387" data-name="Path 1387" d="M11,506a11,11,0,1,1,11,11A11,11,0,0,1,11,506Zm0,88a11,11,0,1,1,11,11A11,11,0,0,1,11,594Z" transform="translate(89 3578.16)" fill="#57475b" stroke="#57475b" stroke-width="1"/>
    <g id="Group_856" data-name="Group 856" transform="translate(170 4073.16)">
      <path id="Path_1360" data-name="Path 1360" d="M550,902l44-44V814" transform="translate(-539 -803)" fill="none" stroke="#57475b" stroke-width="7.33"/>
      <path id="Path_1361" data-name="Path 1361" d="M539,902a11,11,0,1,1,11,11A11,11,0,0,1,539,902Zm44-88a11,11,0,1,1,11,11A11,11,0,0,1,583,814Z" transform="translate(-539 -803)" fill="#57475b"/>
    </g>
    <g id="Group_857" data-name="Group 857" transform="translate(244 4073.16)">
      <path id="Path_1296" data-name="Path 1296" d="M1826,374l-44,44h-88l-44,44" transform="translate(-1639 -363)" fill="none" stroke="#57475b" stroke-width="7.33"/>
      <path id="Path_1297" data-name="Path 1297" d="M1815,374a11,11,0,1,1,11,11A11,11,0,0,1,1815,374Zm-176,88a11,11,0,1,1,11,11A11,11,0,0,1,1639,462Z" transform="translate(-1639 -363)" fill="#57475b"/>
    </g>
  </g>
</svg>
