<svg xmlns="http://www.w3.org/2000/svg" width="52" height="52" viewBox="0 0 52 52">
  <g id="Group_921" data-name="Group 921" transform="translate(-540 -912)">
    <g id="Ellipse_10" data-name="Ellipse 10" transform="translate(540 912)" fill="#fff" stroke="#ffb700" stroke-width="1">
      <circle cx="26" cy="26" r="26" stroke="none"/>
      <circle cx="26" cy="26" r="25.5" fill="none"/>
    </g>
    <g id="Group_382" data-name="Group 382" transform="translate(-83.542 59.127)">
      <path id="Path_766" data-name="Path 766" d="M552.534,250.683a.606.606,0,0,0-.86-.076l-.051.051a.6.6,0,0,0-.076.834,6.61,6.61,0,0,1,1.517,4.2,6.469,6.469,0,0,1-1.517,4.2.63.63,0,0,0,.076.86l.051.051a.606.606,0,0,0,.86-.076,7.773,7.773,0,0,0,1.8-5.006,7.934,7.934,0,0,0-1.8-5.032Z" transform="translate(107.223 627.09)" fill="#fcb615"/>
      <path id="Path_767" data-name="Path 767" d="M515.551,283.163a.6.6,0,0,0-.86-.076l-.025.025a.6.6,0,0,0-.076.834,4.415,4.415,0,0,1,0,5.562.6.6,0,0,0,.076.834l.025.025a.6.6,0,0,0,.86-.076,5.618,5.618,0,0,0,1.264-3.565A5.345,5.345,0,0,0,515.551,283.163Z" transform="translate(142.512 596.077)" fill="#fcb615"/>
      <path id="Path_768" data-name="Path 768" d="M479.124,314.908a.584.584,0,0,0-.86-.076.6.6,0,0,0-.076.834,2.167,2.167,0,0,1,.455,1.365,2.329,2.329,0,0,1-.455,1.365.6.6,0,0,0,.076.834.584.584,0,0,0,.86-.076,3.443,3.443,0,0,0,0-4.247Z" transform="translate(177.27 565.773)" fill="#fcb615"/>
      <path id="Path_769" data-name="Path 769" d="M98.814,68.3a1.439,1.439,0,0,1-.177-.556A7.333,7.333,0,0,0,84,68.372a8.435,8.435,0,0,0,2.958,6.3.976.976,0,0,1,.354.733v4.2a.634.634,0,0,0,.581.632l6.321.556a.646.646,0,0,0,.708-.632V77.2a.346.346,0,0,1,.354-.354h2.2A1.241,1.241,0,0,0,98.713,75.6V72.644a.226.226,0,0,1,.228-.228h1.087a.817.817,0,0,0,.683-1.264Z" transform="translate(553.535 807.96)" fill="#fcb615"/>
    </g>
  </g>
</svg>
