<svg id="Group_909" data-name="Group 909" xmlns="http://www.w3.org/2000/svg" width="62.471" height="61.043" viewBox="0 0 62.471 61.043">
  <path id="Path_1013" data-name="Path 1013" d="M285.811,234.8a1.035,1.035,0,0,1-1.463,1.463,11.515,11.515,0,0,0-16.266,0,1.035,1.035,0,1,1-1.464-1.463,13.585,13.585,0,0,1,19.193,0Z" transform="translate(-244.978 -206.126)"/>
  <path id="Path_1014" data-name="Path 1014" d="M304.414,268.082a1.035,1.035,0,0,1-1.463,1.463,7.433,7.433,0,0,0-10.5,0,1.035,1.035,0,0,1-1.462-1.463,9.5,9.5,0,0,1,13.425,0Z" transform="translate(-266.465 -236.522)"/>
  <path id="Path_1015" data-name="Path 1015" d="M325.515,305.821a1.035,1.035,0,0,1-1.464,1.463,2.8,2.8,0,0,0-3.958,0,1.035,1.035,0,0,1-1.463-1.463,4.874,4.874,0,0,1,6.885,0Z" transform="translate(-290.837 -270.99)"/>
  <path id="Path_1016" data-name="Path 1016" d="M212.331,149.983a17.283,17.283,0,0,1,12.839-4.6h0a17,17,0,0,1,11.164,5.076A15.889,15.889,0,0,1,241,161.523a16.241,16.241,0,0,1-9.25,14.512v8.449a7.638,7.638,0,0,1-15.261,0v-8.4a16.439,16.439,0,0,1-9.25-14.505,15.852,15.852,0,0,1,5.1-11.6Zm6.224,32.5h11.122v-2.975H218.554Zm5.564,7.2a5.381,5.381,0,0,0,5.493-5.134H218.62A5.382,5.382,0,0,0,224.119,189.686Zm-6.149-15.206a1.007,1.007,0,0,1,.585.946v2.013h11.122v-2.071a1.006,1.006,0,0,1,.6-.951,14.008,14.008,0,0,0,8.637-12.885,13.807,13.807,0,0,0-4.048-9.625,14.939,14.939,0,0,0-9.811-4.459c-.3-.018-.608-.027-.91-.027a15.171,15.171,0,0,0-10.391,4.067,13.79,13.79,0,0,0-4.431,10.093,14.242,14.242,0,0,0,8.649,12.9Z" transform="translate(-192.879 -130.751)"/>
  <path id="Path_1017" data-name="Path 1017" d="M343.319,22.91v7.767a1.035,1.035,0,1,1-2.069,0V22.91a1.035,1.035,0,1,1,2.069,0Z" transform="translate(-311.049 -21.875)"/>
  <path id="Path_1018" data-name="Path 1018" d="M86.876,266.88h8.083a1.035,1.035,0,1,1,0,2.069H86.876a1.035,1.035,0,1,1,0-2.069Z" transform="translate(-33.522 -237.909)"/>
  <path id="Path_1019" data-name="Path 1019" d="M529.336,266.88h8.083a1.035,1.035,0,1,1,0,2.069h-8.084a1.035,1.035,0,0,1,0-2.069Z" transform="translate(-528.301 -237.909)"/>
  <path id="Path_1020" data-name="Path 1020" d="M166.85,94.155a1.035,1.035,0,0,1,1.425,1.5l-5.755,5.468a1.035,1.035,0,1,1-1.425-1.5Z" transform="translate(-114.986 -85.357)"/>
  <path id="Path_1021" data-name="Path 1021" d="M474.8,94.151l5.755,5.467a1.035,1.035,0,1,1-1.425,1.5l-5.755-5.468a1.035,1.035,0,1,1,1.425-1.5Z" transform="translate(-464.195 -85.354)"/>
</svg>
