<svg id="Group_907" data-name="Group 907" xmlns="http://www.w3.org/2000/svg" width="45.74" height="49.297" viewBox="0 0 45.74 49.297">
  <path id="Path_1087" data-name="Path 1087" d="M103.695,390.95H110.4a2.929,2.929,0,0,0,2.9-2.9v-10.52a2.929,2.929,0,0,0-2.9-2.9h-6.709a2.929,2.929,0,0,0-2.9,2.9v10.52a2.864,2.864,0,0,0,2.9,2.9Z" transform="translate(-67.56 -341.653)" fill="#fcb615"/>
  <path id="Path_1088" data-name="Path 1088" d="M287.373,315.082h6.709a2.929,2.929,0,0,0,2.9-2.9V294.093a2.929,2.929,0,0,0-2.9-2.9h-6.709a2.929,2.929,0,0,0-2.9,2.9v18.042a2.94,2.94,0,0,0,2.9,2.947Z" transform="translate(-267.908 -265.786)" fill="#fcb615"/>
  <path id="Path_1089" data-name="Path 1089" d="M469.937,97.154h6.708a2.929,2.929,0,0,0,2.9-2.9V54.413a2.929,2.929,0,0,0-2.9-2.9h-6.709a2.929,2.929,0,0,0-2.9,2.9V94.257a2.929,2.929,0,0,0,2.9,2.9Z" transform="translate(-467.04 -47.857)" fill="#fcb615"/>
  <path id="Path_1090" data-name="Path 1090" d="M128.8,41.116a10.9,10.9,0,0,0,21.8.254H139.32V30.24A10.885,10.885,0,0,0,128.8,41.116Z" transform="translate(-107.404 -28.512)" fill="#fcb615"/>
  <path id="Path_1091" data-name="Path 1091" d="M111.44,11.2V22.176h10.977A11.973,11.973,0,0,0,111.44,11.2Z" transform="translate(-77.643 -11.199)" fill="#fcb615"/>
</svg>
