<svg xmlns="http://www.w3.org/2000/svg" width="56.235" height="57.313" viewBox="0 0 56.235 57.313">
  <g id="Group_908" data-name="Group 908" transform="translate(0 0)">
    <path id="Path_918" data-name="Path 918" d="M134.429,260.6h2.408a2.781,2.781,0,0,0,2.786-2.769.84.84,0,0,1,1.679,0,4.462,4.462,0,0,1-4.465,4.448h-2.408a.84.84,0,0,1,0-1.679Z" transform="translate(-91.036 -230.693)" fill="#7dcdc7"/>
    <path id="Path_919" data-name="Path 919" d="M166.614,352.96h7.172a4.292,4.292,0,0,1,4.3,4.279.84.84,0,1,1-1.679,0,2.611,2.611,0,0,0-2.617-2.6h-7.172a.84.84,0,1,1,0-1.679Z" transform="translate(-131.111 -316.836)" fill="#7dcdc7"/>
    <path id="Path_920" data-name="Path 920" d="M303.28,352.96h3.482a.84.84,0,1,1,0,1.679H303.28a.84.84,0,1,1,0-1.679Z" transform="translate(-274.617 -316.836)" fill="#7dcdc7"/>
    <path id="Path_921" data-name="Path 921" d="M228.634,193.57a.839.839,0,0,1,.84.84,4.371,4.371,0,0,0,4.379,4.354.84.84,0,0,1,0,1.679,6.052,6.052,0,0,1-6.058-6.033.839.839,0,0,1,.84-.84Z" transform="translate(-194.068 -173.759)" fill="#7dcdc7"/>
    <path id="Path_922" data-name="Path 922" d="M234.783,69.492a3.647,3.647,0,0,1,3.874,3.391.839.839,0,0,1-.783.892l-.056,0a.84.84,0,0,1-.837-.785,1.967,1.967,0,0,0-2.091-1.824.839.839,0,1,1-.108-1.675Z" transform="translate(-198.67 -62.373)" fill="#7dcdc7"/>
    <path id="Path_923" data-name="Path 923" d="M240.27,389.489a.84.84,0,1,1,0,1.679,2.5,2.5,0,1,0,0,5,.84.84,0,1,1,0,1.679,4.177,4.177,0,1,1,0-8.354Z" transform="translate(-201.333 -349.627)" fill="#7dcdc7"/>
    <path id="Path_924" data-name="Path 924" d="M323.726,196.32a.84.84,0,0,1,0,1.679,2.006,2.006,0,1,0,0,4.012.84.84,0,0,1,0,1.679,3.685,3.685,0,1,1,0-7.37Z" transform="translate(-293.38 -176.228)" fill="#7dcdc7"/>
    <path id="Path_925" data-name="Path 925" d="M180.676,144.159a.84.84,0,0,1,0,1.679,3.449,3.449,0,1,0,0,6.9.84.84,0,0,1,0,1.679,5.128,5.128,0,1,1,0-10.256Z" transform="translate(-135.542 -129.405)" fill="#7dcdc7"/>
    <path id="Path_926" data-name="Path 926" d="M544.261,143.79a2.852,2.852,0,1,1-2.862,2.852A2.86,2.86,0,0,1,544.261,143.79Zm0,4.025a1.173,1.173,0,1,0-1.183-1.173A1.179,1.179,0,0,0,544.26,147.815Z" transform="translate(-538.594 -129.073)" fill="#7dcdc7"/>
    <path id="Path_927" data-name="Path 927" d="M571.671,353.74a2.852,2.852,0,1,1-2.862,2.852A2.86,2.86,0,0,1,571.671,353.74Zm0,4.025a1.173,1.173,0,1,0-1.183-1.173A1.179,1.179,0,0,0,571.671,357.765Z" transform="translate(-568.809 -317.536)" fill="#7dcdc7"/>
    <path id="Path_928" data-name="Path 928" d="M539.336,241.928a2.854,2.854,0,0,1,1.341.333l1.637-1.628a.84.84,0,1,1,1.185,1.19l-1.632,1.624a2.828,2.828,0,0,1,.333,1.333,2.862,2.862,0,1,1-2.862-2.852Zm0,4.025a1.173,1.173,0,1,0-1.183-1.173A1.179,1.179,0,0,0,539.336,245.953Z" transform="translate(-534.713 -215.786)" fill="#7dcdc7"/>
    <path id="Path_929" data-name="Path 929" d="M535.981,439.37a2.852,2.852,0,1,1-2.862,2.852A2.86,2.86,0,0,1,535.981,439.37Zm0,4.025a1.173,1.173,0,1,0-1.183-1.173A1.179,1.179,0,0,0,535.981,443.395Z" transform="translate(-529.466 -394.402)" fill="#7dcdc7"/>
    <path id="Path_930" data-name="Path 930" d="M83.972,15.778a2.374,2.374,0,0,1-1.549-.639L79.18,11.911A2.855,2.855,0,1,1,80.5,10.855l3.109,3.093a.793.793,0,0,0,.365.151H90.9V8.541H88.953a2.852,2.852,0,1,1,0-1.679H90.9V6.735a6.769,6.769,0,0,1,12.913-2.8q.252-.018.5-.018a7.126,7.126,0,0,1,7.13,6.933,7.2,7.2,0,0,1,1.013-.072,7.125,7.125,0,0,1,7.132,7.1,7,7,0,0,1-.449,2.482,9.646,9.646,0,0,1,3.2,13.5,9.724,9.724,0,0,1-3.23,3.114,7.077,7.077,0,0,1-1.3,7.241.839.839,0,1,1-1.258-1.112,5.4,5.4,0,0,0,1.356-3.579,5.328,5.328,0,0,0-.622-2.515,5.439,5.439,0,0,0-2.227-2.25.839.839,0,0,1,.8-1.476,7.122,7.122,0,0,1,2.464,2.207,7.971,7.971,0,0,0-.523-13.951,8.235,8.235,0,0,0-3.648-.872.84.84,0,0,1,0-1.679,9.7,9.7,0,0,1,3.464.636,5.334,5.334,0,0,0,.293-1.748A5.46,5.46,0,0,0,110.8,12.71a.839.839,0,0,1-1.085-.92,5.419,5.419,0,0,0-5.4-6.2,5.526,5.526,0,0,0-.9.075,5.44,5.44,0,0,0-4.556,5.348.84.84,0,1,1-1.679,0A7.115,7.115,0,0,1,102.1,4.266a5.089,5.089,0,0,0-9.52,2.469v.093H94.2a.84.84,0,1,1,0,1.679H92.581V14.1h6.79a2.78,2.78,0,0,0,2.786-2.768.84.84,0,0,1,1.679,0,4.461,4.461,0,0,1-4.465,4.447h-6.79V29.911H106.2a.84.84,0,1,1,0,1.679H92.581V43.117h2.594a4.292,4.292,0,0,1,4.3,4.279.84.84,0,0,1-1.679,0,2.611,2.611,0,0,0-2.617-2.6H92.581v5.783c0,.132.007.262.017.391h1.6a.84.84,0,0,1,0,1.679H93.029a5.1,5.1,0,0,0,9.058.425,7.11,7.11,0,0,1-2.734-1.647.839.839,0,0,1,1.166-1.208,5.427,5.427,0,0,0,2.886,1.453,5.525,5.525,0,0,0,.911.077,5.444,5.444,0,0,0,5.453-5.422c0-.076,0-.156-.008-.234a7.129,7.129,0,0,1-1.882-1.127.84.84,0,0,1-.106-1.183.849.849,0,0,1,1.183-.106,5.592,5.592,0,0,0,3.967,1.249.84.84,0,0,1,.139,1.674,7.249,7.249,0,0,1-1.615-.047,7.126,7.126,0,0,1-7.129,6.877c-.17,0-.341-.006-.513-.019a6.769,6.769,0,0,1-12.9-2.83V48.724h-4.45a.794.794,0,0,0-.365.15l-2,1.992a2.829,2.829,0,0,1,.428,1.5,2.863,2.863,0,1,1-1.7-2.6L84.9,47.684a2.375,2.375,0,0,1,1.549-.639H90.9V42.557H83.6a2.852,2.852,0,1,1,0-1.679h7.3V35.254H82.168a2.852,2.852,0,1,1,0-1.679H90.9V27.464h-2.08a2.852,2.852,0,1,1,0-1.679H90.9V20.94H81.755a.794.794,0,0,0-.365.15l-1.725,1.716a.839.839,0,0,1-1.184-1.19L80.206,19.9a2.375,2.375,0,0,1,1.549-.639H90.9V15.778ZM78.128,8.087a1.173,1.173,0,1,0,1.183,1.173A1.179,1.179,0,0,0,78.128,8.087Zm8.089-1.558A1.173,1.173,0,1,0,87.4,7.7,1.179,1.179,0,0,0,86.217,6.529ZM81.651,51.19a1.173,1.173,0,1,0,1.183,1.173A1.179,1.179,0,0,0,81.651,51.19Zm-.783-10.646a1.173,1.173,0,1,0,1.183,1.173A1.179,1.179,0,0,0,80.868,40.544Zm-1.435-7.3a1.173,1.173,0,1,0,1.183,1.173A1.179,1.179,0,0,0,79.433,33.242Zm6.654-7.79a1.173,1.173,0,1,0,1.183,1.173A1.179,1.179,0,0,0,86.087,25.452Z" transform="translate(-67.634 0)" fill="#7dcdc7"/>
  </g>
</svg>
