<svg id="Group_911" data-name="Group 911" xmlns="http://www.w3.org/2000/svg" width="38.896" height="43.61" viewBox="0 0 38.896 43.61">
  <path id="Path_1129" data-name="Path 1129" d="M324.214,250.82a3.45,3.45,0,1,1-3.45,3.45A3.453,3.453,0,0,1,324.214,250.82Zm0,5.244a1.794,1.794,0,1,0-1.794-1.794A1.8,1.8,0,0,0,324.214,256.064Z" transform="translate(-304.759 -232.465)" fill="#fcb615"/>
  <path id="Path_1130" data-name="Path 1130" d="M188.7,119.4c.553-.667,1.182-1.336,1.848-2-4.128-4.152-5.994-8.212-4.505-10.817.641-1.122,2.173-2.459,5.832-2.459a23.711,23.711,0,0,1,5.909.873c1.552-5.715,4.169-9.4,7.192-9.4s5.64,3.685,7.192,9.4a23.694,23.694,0,0,1,5.909-.873c3.659,0,5.191,1.338,5.832,2.459,1.489,2.606-.377,6.667-4.506,10.818,4.129,4.152,6,8.212,4.506,10.818-.641,1.122-2.174,2.459-5.832,2.459a23.71,23.71,0,0,1-5.909-.873c-1.552,5.715-4.169,9.4-7.192,9.4s-5.64-3.685-7.191-9.4a23.728,23.728,0,0,1-5.908.873h0c-3.658,0-5.19-1.338-5.832-2.459C184.815,126.07,185.759,122.939,188.7,119.4Zm3.175-13.623c-1.581,0-3.627.282-4.395,1.625-1.167,2.042.831,5.424,4.286,8.834a45.985,45.985,0,0,1,4.73-3.748,45.665,45.665,0,0,1,.893-5.89,22.073,22.073,0,0,0-5.515-.821Zm9.608,17.734c1.163.664,2.332,1.276,3.492,1.833,1.161-.556,2.329-1.168,3.492-1.833,1.145-.655,2.28-1.37,3.382-2.121.107-1.33.164-2.671.164-3.989s-.057-2.66-.164-3.989c-1.1-.752-2.237-1.466-3.383-2.121-1.163-.664-2.332-1.276-3.491-1.833-1.161.557-2.329,1.168-3.492,1.833s-2.3,1.373-3.381,2.1c-.108,1.338-.165,2.686-.165,4.014s.057,2.659.164,3.989c1.1.752,2.236,1.467,3.382,2.121Zm-3.167.019c.177,1.446.414,2.857.7,4.195,1.3-.411,2.64-.91,4.009-1.5q-1.184-.6-2.366-1.278c-.808-.461-1.588-.936-2.346-1.418Zm8.607,2.7c1.368.587,2.712,1.087,4.009,1.5.29-1.338.527-2.749.7-4.194q-1.136.723-2.346,1.418-1.18.673-2.366,1.278Zm6.679-6.086c1.188-.887,2.315-1.808,3.348-2.741-1.033-.933-2.16-1.854-3.348-2.741.043.9.068,1.81.068,2.741S213.643,119.241,213.6,120.139Zm-1.968-8.871c-.177-1.446-.414-2.857-.7-4.195-1.3.411-2.641.91-4.009,1.5.789.4,1.58.829,2.366,1.278q1.213.693,2.346,1.418Zm-8.606-2.7c-1.368-.587-2.712-1.087-4.009-1.5-.29,1.34-.527,2.754-.7,4.2.764-.487,1.542-.966,2.347-1.426q1.18-.673,2.366-1.278Zm-6.677,6.045a42.833,42.833,0,0,0-3.378,2.757c1.04.94,2.177,1.871,3.376,2.766-.043-.9-.067-1.81-.067-2.741s.026-1.872.07-2.782Zm8.624-17.368c-2.37,0-4.328,3.468-5.572,8.216a46.728,46.728,0,0,1,5.573,2.165,46.723,46.723,0,0,1,5.572-2.165C209.3,100.716,207.343,97.248,204.973,97.248Zm17.5,10.152c-.768-1.343-2.813-1.625-4.395-1.625a22.086,22.086,0,0,0-5.515.82,45.6,45.6,0,0,1,.892,5.882,45.474,45.474,0,0,1,4.732,3.755c3.455-3.409,5.451-6.792,4.285-8.833Zm-4.395,21.62c1.581,0,3.627-.282,4.395-1.625,1.166-2.042-.83-5.424-4.285-8.833a45.427,45.427,0,0,1-4.732,3.756,45.706,45.706,0,0,1-.892,5.882,22.092,22.092,0,0,0,5.515.82Zm-13.1,8.527c2.37,0,4.328-3.468,5.573-8.216a46.769,46.769,0,0,1-5.572-2.165,46.794,46.794,0,0,1-5.573,2.164c1.245,4.749,3.2,8.217,5.572,8.217Zm-17.494-10.152c.768,1.344,2.813,1.625,4.394,1.625h0a22.107,22.107,0,0,0,5.514-.82,45.6,45.6,0,0,1-.892-5.882,45.46,45.46,0,0,1-4.754-3.777c-.638.638-1.24,1.278-1.769,1.915-2.431,2.928-3.34,5.457-2.493,6.939Z" transform="translate(-185.518 -95.592)" fill="#fcb615"/>
</svg>
