<svg xmlns="http://www.w3.org/2000/svg" width="43.71" height="43.71" viewBox="0 0 43.71 43.71">
  <path id="instagram" d="M34.942,3H14.768A11.781,11.781,0,0,0,3,14.768V34.942A11.781,11.781,0,0,0,14.768,46.71H34.942A11.781,11.781,0,0,0,46.71,34.942V14.768A11.781,11.781,0,0,0,34.942,3Zm8.406,31.942a8.415,8.415,0,0,1-8.406,8.406H14.768a8.415,8.415,0,0,1-8.406-8.406V14.768a8.415,8.415,0,0,1,8.406-8.406H34.942a8.415,8.415,0,0,1,8.406,8.406ZM24.855,14.768A10.087,10.087,0,1,0,34.942,24.855,10.1,10.1,0,0,0,24.855,14.768Zm0,16.811a6.725,6.725,0,1,1,6.725-6.725A6.731,6.731,0,0,1,24.855,31.579ZM38.3,13.927a2.522,2.522,0,1,1-2.522-2.522A2.523,2.523,0,0,1,38.3,13.927Z" transform="translate(-3 -3)" fill="#fff"/>
</svg>
