<svg xmlns="http://www.w3.org/2000/svg" width="43.71" height="43.71" viewBox="0 0 43.71 43.71">
  <path id="linkedin" d="M29.162,23.1H29.2V23.05Zm0,0H29.2V23.05Zm0,0H29.2V23.05Zm0,0H29.2V23.05Zm0,0H29.2V23.05Zm0,0H29.2V23.05Zm0,0H29.2V23.05Zm0,0H29.2V23.05Zm0,0H29.2V23.05Zm0,0H29.2V23.05Zm0,0H29.2V23.05Zm0,0H29.2V23.05Zm0,0H29.2V23.05Zm0,0H29.2V23.05Zm0,0H29.2V23.05Zm0,0H29.2V23.05ZM26.985,3.77A21.855,21.855,0,1,0,48.84,25.625,21.855,21.855,0,0,0,26.985,3.77ZM21.52,35.463a.368.368,0,0,1-.368.364H16.94a.364.364,0,0,1-.364-.364V21.313a.364.364,0,0,1,.364-.368h4.211a.368.368,0,0,1,.368.368ZM18.9,19.054a2.642,2.642,0,1,1,1.873-.774,2.646,2.646,0,0,1-1.873.774ZM39.341,35.463a.368.368,0,0,1-.368.364H34.761a.364.364,0,0,1-.364-.364v-7.6c0-2-.713-3.35-2.5-3.35a2.7,2.7,0,0,0-2.536,1.809,3.407,3.407,0,0,0-.163,1.206v7.939a.368.368,0,0,1-.368.368H24.616a.364.364,0,0,1-.364-.368c0-2.019.053-11.825,0-14.131a.364.364,0,0,1,.364-.368h4.2a.364.364,0,0,1,.368.368v1.737a4.91,4.91,0,0,1,4.455-2.455c3.249,0,5.69,2.125,5.69,6.7ZM29.2,23.117v-.053l-.033.053Zm-.033,0H29.2v-.053Zm0,0H29.2v-.053Zm0,0H29.2v-.053Zm0,0H29.2v-.053Zm0,0H29.2v-.053Zm0,0H29.2v-.053Zm0,0H29.2v-.053Zm0,0H29.2v-.053Zm0,0H29.2v-.053Zm0,0H29.2v-.053Zm0,0H29.2v-.053Zm0,0H29.2v-.053Zm0,0H29.2v-.053Zm0,0H29.2v-.053Z" transform="translate(-5.13 -3.77)" fill="#fff"/>
</svg>
