<svg xmlns="http://www.w3.org/2000/svg" width="180.324" height="347.212" viewBox="0 0 180.324 347.212">
  <path id="Path_899" data-name="Path 899" d="M317.527,290V257.048c0-2.113,2.238-3.8,5.039-3.8h23.52V33.6h5.6V253.247h23.52c2.8,0,5.039,1.688,5.039,3.8V290c30.8,14.361,52.641,38.014,59.359,65.472,0,1.267,0,2.113-1.121,2.958l-1.121.846a178.011,178.011,0,0,1-85.121,21.541,201.873,201.873,0,0,1-89.039-21.12,4.083,4.083,0,0,1-3.922-4.225c6.164-27.033,27.445-51.112,58.246-65.472Z" transform="translate(-259.281 -33.601)" fill="#e88868"/>
</svg>
