<svg xmlns="http://www.w3.org/2000/svg" width="45.391" height="36.951" viewBox="0 0 45.391 36.951">
  <path id="twitter" d="M47.391,8.277a19.268,19.268,0,0,1-5.356,1.452,9.373,9.373,0,0,0,4.108-5.152,18.633,18.633,0,0,1-5.923,2.27,9.305,9.305,0,0,0-15.887,8.488A26.417,26.417,0,0,1,5.155,5.6a9.441,9.441,0,0,0-1.248,4.7,9.282,9.282,0,0,0,4.131,7.739,9.192,9.192,0,0,1-4.221-1.157v.113a9.305,9.305,0,0,0,7.489,9.078,8.919,8.919,0,0,1-2.5.386A11.121,11.121,0,0,1,7.061,26.3a9.328,9.328,0,0,0,8.692,6.445A18.656,18.656,0,0,1,4.27,36.736,18,18,0,0,1,2,36.6a26.258,26.258,0,0,0,14.275,4.2A26.3,26.3,0,0,0,42.852,14.291v-1.2A19.132,19.132,0,0,0,47.391,8.277Z" transform="translate(-2 -3.849)" fill="#fff"/>
</svg>
