<svg xmlns="http://www.w3.org/2000/svg" width="48.74" height="34.249" viewBox="0 0 48.74 34.249">
  <path id="youtube" d="M49.72,16.329A18.819,18.819,0,0,0,47.7,7.185,6.465,6.465,0,0,0,43.9,4.971a173.5,173.5,0,0,0-18.532-.686A173.682,173.682,0,0,0,6.9,4.948,6.354,6.354,0,0,0,3.668,6.587c-1.993,1.838-2.214,4.982-2.435,7.638a106.912,106.912,0,0,0,0,14.347A21.144,21.144,0,0,0,1.9,33a6.952,6.952,0,0,0,1.572,3.011,6.332,6.332,0,0,0,3.3,1.727,100.029,100.029,0,0,0,14.391.731c7.749.111,14.546,0,22.583-.62a6.376,6.376,0,0,0,3.387-1.727,5.513,5.513,0,0,0,1.351-2.214,23.425,23.425,0,0,0,1.151-7.528C49.72,25.14,49.72,17.657,49.72,16.329ZM20.361,27.709V14l13.107,6.886C29.793,22.926,24.944,25.229,20.361,27.709Z" transform="translate(-0.991 -4.258)" fill="#fff"/>
</svg>
